Coordinates
version=1
nRows=8
nColumns=36
inDegrees=yes

Units are S.I. units (second, meters, Newtons, ...)
Angles are in degrees.

endheader
time	pelvis_tilt	pelvis_list	pelvis_rotation	pelvis_tx	pelvis_ty	pelvis_tz	hip_flexion_r	hip_adduction_r	hip_rotation_r	knee_angle_r	ankle_angle_r	subtalar_angle_r	hip_flexion_l	hip_adduction_l	hip_rotation_l	knee_angle_l	ankle_angle_l	subtalar_angle_l	lumbar_extension	lumbar_bending	lumbar_rotation	arm_flex_r	arm_add_r	arm_rot_r	elbow_flex_r	pro_sup_r	wrist_flex_r	wrist_dev_r	arm_flex_l	arm_add_l	arm_rot_l	elbow_flex_l	pro_sup_l	wrist_flex_l	wrist_dev_l
      1.90000000	      0.54757851	      2.91534425	      1.11909745	     -0.07709458	      0.90272624	     -0.18812460	     26.72394377	     -1.49338858	     -9.69449801	    -13.87436399	      3.43278609	      4.68414004	    -15.43623114	      4.81266063	      6.96542224	    -15.95191996	     13.96298337	      5.25983994	     -6.87856665	     -0.75174467	     -9.22465074	     -8.69621291	    -15.80709325	      6.96724066	     18.43944718	     86.51662706	      0.00000000	      0.00000000	      0.63533562	    -19.44296932	     13.49428423	     31.92853562	     86.51662706	      0.00000000	      0.00000000
      1.91000000	      0.62529619	      2.77952899	      1.20150774	     -0.06303845	      0.90122608	     -0.18688932	     26.62592092	     -1.21311277	     -9.25774280	    -15.18849316	      2.54173093	      3.13718946	    -15.79056150	      4.50649197	      6.57666150	    -17.10077743	     13.70958357	      6.06585847	     -6.74923172	     -0.53970044	     -9.24569648	     -8.79993074	    -15.85972365	      7.13149280	     18.35081904	     86.51662706	      0.00000000	      0.00000000	      0.41903299	    -19.31174736	     13.45928862	     31.72337238	     86.51662706	      0.00000000	      0.00000000
      1.92000000	      0.67945118	      2.56495883	      1.23819306	     -0.04884007	      0.89967320	     -0.18561481	     26.56393022	     -0.81716209	     -8.74891408	    -16.60986281	      1.36026989	      1.33327766	    -16.02114922	      4.11082706	      6.07866606	    -18.40426234	     13.29626063	      6.93448771	     -6.57104171	     -0.22382934	     -9.19922074	     -8.91710978	    -15.95049982	      7.28173779	     18.30019127	     86.51662706	      0.00000000	      0.00000000	      0.16145528	    -19.13248676	     13.41289949	     31.48157763	     86.51662706	      0.00000000	      0.00000000
      1.93000000	      0.71809217	      2.24426762	      1.22573848	     -0.03458611	      0.89829099	     -0.18424983	     26.56414356	     -0.29304548	     -8.17889378	    -18.07664803	     -0.03735966	     -0.58122322	    -16.10634010	      3.60431995	      5.48583399	    -19.88467794	     12.64906809	      7.82787219	     -6.35650044	      0.21947719	     -9.08061613	     -9.03365824	    -16.07871760	      7.41432824	     18.28345865	     86.51662706	      0.00000000	      0.00000000	     -0.12470826	    -18.90259213	     13.35900923	     31.19763650	     86.51662706	      0.00000000	      0.00000000
      1.94000000	      0.74414663	      1.80086642	      1.17019132	     -0.02037174	      0.89734351	     -0.18277129	     26.62324329	      0.36009908	     -7.55463799	    -19.55890852	     -1.53218953	     -2.46300680	    -16.02237654	      2.97873941	      4.81901247	    -21.56675682	     11.68467591	      8.70539879	     -6.11823601	      0.79932238	     -8.89514117	     -9.13677286	    -16.24157815	      7.52525152	     18.29779267	     86.51662706	      0.00000000	      0.00000000	     -0.43060210	    -18.62491426	     13.30290235	     30.86900525	     86.51662706	      0.00000000	      0.00000000
      1.95000000	      0.75432294	      1.23896546	      1.08528244	     -0.00625023	      0.89692770	     -0.18123229	     26.70813771	      1.13283277	     -6.89064437	    -21.04074192	     -2.97874021	     -4.18867535	    -15.74755607	      2.24270315	      4.10462622	    -23.47120123	     10.32402695	      9.52798274	     -5.86550827	      1.50455221	     -8.65664096	     -9.21765208	    -16.43392401	      7.61022704	     18.34241239	     86.51662706	      0.00000000	      0.00000000	     -0.75186166	    -18.30818751	     13.25134206	     30.49661492	     86.51662706	      0.00000000	      0.00000000
      1.96000000	      0.74704632	      0.58450288	      0.98726889	      0.00781790	      0.89690962	     -0.17970720	     26.77306360	      2.00385624	     -6.21801827	    -22.49572620	     -4.22875552	     -5.66724023	    -15.26692755	      1.41852486	      3.37496560	    -25.60834772	      8.51018650	     10.26113621	     -5.60392367	      2.30388846	     -8.38411207	     -9.27254376	    -16.64816433	      7.66498559	     18.41892467	     86.51662706	      0.00000000	      0.00000000	     -1.08697224	    -17.96600947	     13.21247231	     30.08471122	     86.51662706	      0.00000000	      0.00000000
      1.97000000	      0.72586716	     -0.12288614	      0.89007633	      0.02189866	      0.89705630	     -0.17820243	     26.77553057	      2.93896205	     -5.58510310	    -23.87646857	     -5.15494861	     -6.84566826	    -14.57491708	      0.53458210	      2.66909696	    -27.97379702	      6.22729628	     10.87611135	     -5.33816794	      3.15281233	     -8.09745712	     -9.30199301	    -16.87481729	      7.68574835	     18.53105181	     86.51662706	      0.00000000	      0.00000000	     -1.43405436	    -17.61452442	     13.19553973	     29.64009766	     86.51662706	      0.00000000	      0.00000000
